PathFileType	4	(X/Y/Z)	Patient4_TMGait_0pt5_01_left_34.trc.trc
DataRate	CameraRate	NumFrames	NumMarkers	Units	OrigDataRate	OrigDataStartFrame	OrigNumFrames
72.164948453608	72.164948453608	4	33	mm	72.164948453608	89	       141
Frame#	Time	L.ASIS			Sacral			L.Shoulder			Chest			R.Shoulder			Neck			R.ASIS			R.Thigh.Superior			R.Thigh.Lateral			R.Thigh.Inferior			R.Patella			L.Thigh.Superior			L.Thigh.Lateral			L.Thigh.Inferior			L.Patella			L.Shank.Superior			L.Shank.Lateral			L.Shank.Inferior			R.Shank.Superior			R.Shank.Lateral			R.Shank.Inferior			R.Heel			R.Midfoot.Superior			R.Midfoot.Lateral			R.Toe			L.Heel			L.Midfoot.Lateral			L.Midfoot.Superior			L.Toe			L.Elbow			L.Wrist			R.Elbow			R.Wrist			
		X1	Y1	Z1	X2	Y2	Z2	X3	Y3	Z3	X4	Y4	Z4	X5	Y5	Z5	X6	Y6	Z6	X7	Y7	Z7	X8	Y8	Z8	X9	Y9	Z9	X10	Y10	Z10	X11	Y11	Z11	X12	Y12	Z12	X13	Y13	Z13	X14	Y14	Z14	X15	Y15	Z15	X16	Y16	Z16	X17	Y17	Z17	X18	Y18	Z18	X19	Y19	Z19	X20	Y20	Z20	X21	Y21	Z21	X22	Y22	Z22	X23	Y23	Z23	X24	Y24	Z24	X25	Y25	Z25	X26	Y26	Z26	X27	Y27	Z27	X28	Y28	Z28	X29	Y29	Z29	X30	Y30	Z30	X31	Y31	Z31	X32	Y32	Z32	X33	Y33	Z33	

89	46.439428571429	809.312411863772	958.056321665004	360.449520745144	591.211509710079	998.699975085457	511.327527092704	771.481049090920	1438.861280328623	355.238717454486	867.096363968651	1360.446963111837	517.310611815726	773.399736812232	1425.199218603500	691.227980148300	767.239196245324	1491.431478757478	509.907493275982	817.081646652576	938.521807288236	634.156167093809	876.997063896293	747.029364756957	604.602272268447	806.181617086051	632.901022495552	661.290060875926	890.169510999202	588.137174897823	582.489138113981	899.941530689905	498.065281915886	588.396435845757	857.639137720098	743.184206350656	386.461509715681	780.957458791299	625.955435064055	316.134631326911	867.904940548992	544.413684607612	377.081641690517	862.103311695978	456.308064388479	373.205549484058	792.000860707782	397.912175983478	367.073302241634	651.186122516006	358.534942985302	317.002563673996	632.074206165752	232.945667672980	376.019121236749	874.327019668536	407.362859047024	595.141990171537	806.512955311875	300.447333145005	655.300630003807	853.059232431046	207.907292773659	592.398353776342	723.395344534733	42.655076526825	559.213781709021	893.920870403928	97.859723071679	596.820973537957	806.090515373863	36.293907798610	634.986378641017	1013.856965916457	46.732450176164	625.294475032139	437.346057624571	170.157654222738	410.276582994038	497.586822214431	127.927582647854	330.437584491548	601.376323668823	136.571445148968	353.918141685022	680.982437538076	34.082109252267	325.910348123050	706.666822923843	1103.913284241344	210.157185577724	872.861976602363	900.438762939254	206.746815887612	746.534707851135	1074.077214494587	795.959676436933	904.222792298117	867.366607230670	790.584486386771	
90	46.453285714286	807.460791329952	958.828822240240	362.634145958597	590.369138592021	999.631052641524	515.436269251136	769.076554805004	1439.940264639404	358.190080741216	866.682268567910	1361.208749311817	518.948243823993	775.241787014658	1425.742322439106	694.141939553735	766.809126080126	1492.259331960643	512.901872860949	817.119202031246	939.427893353688	636.360498510300	874.682452907779	746.246341350876	608.306494470171	802.154562209480	633.035135309015	664.135966658379	885.868144125496	587.498841737529	585.459140256885	894.474267763760	497.558172005489	591.048477163962	861.461287546207	747.571738647717	388.959052428278	789.297564841468	628.347863999097	317.608881717063	879.321166160195	549.196168636711	377.780507731727	875.482587369864	460.065890700850	373.378819949506	804.404441786136	401.100443292687	367.662850417045	662.053340503402	364.920847113062	318.762291538230	640.945659093024	239.340433661871	377.388416377891	868.545253343532	407.081951250668	597.359228752315	800.132441875258	300.215823443237	656.844874565157	846.530274172311	207.781752902213	593.624049477861	716.459829754666	42.688458583886	559.437469659995	887.156282066732	97.895765842792	597.431032752277	799.141118708092	36.229700134344	635.241042923411	1006.940635363075	46.621455447488	625.530956315695	444.700068886834	181.914614369793	413.028511652173	503.110844484729	138.029628993106	332.425737446578	607.819805457195	142.853731378536	355.182389358960	683.592479676391	35.451514707300	325.765827387017	700.645796109639	1105.330508579647	214.084608715867	864.505005150980	899.936029097586	208.560349745660	753.535839933930	1074.880587803978	800.803473571715	914.724619434968	870.965699743392	794.703944919295	
91	46.467142857143	805.525489430999	959.598396218163	364.780579160616	589.425795968076	1000.600116013394	519.367030716512	766.646401792830	1440.950352580353	360.910514664384	866.190502766739	1361.950330621497	520.381796810801	776.991169836702	1426.361234449132	696.777645673813	766.390266592103	1493.084746900800	515.586435743743	816.951287681736	940.317850652384	638.515755026849	872.179969575771	745.577835928786	611.840870287595	797.915642205241	633.192110709557	666.835362647421	881.379054787360	586.895356447286	588.332103035545	888.772943958550	497.104928090092	593.609194602633	864.756598373184	752.124089520230	391.258511527365	796.764061151316	631.240379601831	318.864563997686	889.666979117887	554.486233325408	378.172650585522	887.938516080707	464.539142003020	373.326537768064	816.393496299161	404.766884965755	368.017335874205	672.928512277041	370.588518261666	320.285724583530	650.864355017120	244.892448731535	378.566212770208	862.589182455756	406.859793589707	599.481575402271	793.578108586379	300.039810287139	658.292614968851	839.912852480224	207.704326423965	594.807382943445	709.474023017745	42.732919726993	559.647577451616	880.366227982689	97.915357013088	598.000140901215	792.146768594515	36.172841115255	635.473913317337	999.985204743659	46.476511139267	625.742763817273	453.853410102996	190.728835231315	415.655131076724	510.852422933814	145.989186954298	334.287253878122	616.205141599061	148.299429005571	356.286176972407	689.412934605766	37.235537853209	325.423908957083	694.273865036609	1106.732324386207	217.902100110275	855.429684215155	899.212510439547	210.252187388426	760.670346101110	1075.812455045622	805.323810861761	925.072912279369	874.520151728735	798.555253201228	
92	46.481000000000	803.532619999583	960.418054422045	366.887522828057	588.420553208823	1001.607638492041	523.118610670636	764.217673470605	1441.912741374954	363.429396036444	865.622834546373	1362.694212730887	521.653358359563	778.610651700701	1427.063733762421	699.154737661132	765.968627019631	1493.920049286749	518.001092873328	816.641790271532	941.184418334573	640.609347937095	869.541886304133	745.026172759695	615.071840900618	793.560550326786	633.380468594875	669.322185028237	876.745018695031	586.326317782017	591.002008733721	882.895578575941	496.703467144590	595.980642613095	867.487611310810	756.761232040343	393.336366325503	803.265246539754	634.534643898200	319.927707674877	898.830330091799	560.131662450511	378.300395063000	899.313578486344	469.597284403854	373.068904404616	827.836391039073	408.786725182171	368.137699714291	683.706599807868	375.262175511572	321.521486091589	661.857769993083	249.290675045581	379.460836862698	856.507193348371	406.693071347084	601.439569873991	786.905252931593	299.927576395510	659.604972147069	833.233464601744	207.671666590770	595.906274852583	702.450354896167	42.781210937403	559.842103536248	873.548611795380	97.925857097129	598.507746392388	785.121233935921	36.127519848903	635.682740274642	992.999770173187	46.323214046275	625.930077017136	464.839399925616	196.092036499859	417.985909890020	520.914516682369	151.302083664404	335.878866706259	626.664511334480	152.524244041821	357.106246441102	698.715255455945	39.250148498534	324.827533825384	687.656689761395	1108.149215571098	221.617989506013	845.641671470084	898.236768384242	211.880061703910	767.873232226793	1076.869190472008	809.469551433651	935.309520401864	878.103240232302	802.053928445238	
